<?xml version="1.0" encoding="utf-8"?>
<!-- Generator: Adobe Illustrator 22.1.0, SVG Export Plug-In . SVG Version: 6.00 Build 0)  -->
<svg version="1.1" id="隔离模式" xmlns="http://www.w3.org/2000/svg" xmlns:xlink="http://www.w3.org/1999/xlink" x="0px"
	 y="0px" viewBox="0 0 1495.4 781.4" style="enable-background:new 0 0 1495.4 781.4;" xml:space="preserve">
<style type="text/css">
	.st0{opacity:0.5;fill:#2880B4;}
	.st1{fill:#2880B4;}
</style>
<g>
	<path class="st0" d="M25.7,585.7v-18.9c0-2.4,1.3-4.7,3.4-5.9c2.1-1.2,4.7-1.2,6.8,0c2.1,1.2,3.4,3.5,3.4,5.9v18.9h18.9
		c3.8,0,6.8,3,6.8,6.8c0,3.8-3,6.8-6.8,6.8H39.3v18.9c0,2.4-1.3,4.7-3.4,5.9c-2.1,1.2-4.7,1.2-6.8,0c-2.1-1.2-3.4-3.5-3.4-5.9v-18.9
		H6.8c-3.8,0-6.8-3-6.8-6.8c0-3.8,3-6.8,6.8-6.8H25.7z"/>
	<path class="st0" d="M164.1,419.9v-22.7c0-6.3,5.1-11.4,11.4-11.4c6.3,0,11.4,5.1,11.4,11.4v22.7h22.7c6.3,0,11.4,5.1,11.4,11.4
		c0,6.3-5.1,11.4-11.4,11.4H187v22.7c0,6.3-5.1,11.4-11.4,11.4c-6.3,0-11.4-5.1-11.4-11.4v-22.6h-22.7c-6.3,0-11.4-5.1-11.4-11.4
		c0-6.3,5.1-11.4,11.4-11.4H164.1L164.1,419.9z"/>
	<path class="st0" d="M1438.4,380.9v-22.7c0-6.3,5.1-11.4,11.4-11.4c6.3,0,11.4,5.1,11.4,11.4v22.7h22.6c6.3,0,11.4,5.1,11.4,11.4
		c0,6.3-5.1,11.4-11.4,11.4h-22.6v22.7c0,6.3-5.1,11.4-11.4,11.4c-6.3,0-11.4-5.1-11.4-11.4v-22.6h-22.7c-6.3,0-11.4-5.1-11.4-11.4
		c0-6.3,5.1-11.4,11.4-11.4H1438.4z"/>
	<path class="st1" d="M1086.9,251.6l-38.3-32.9c-0.4-0.3-1-0.5-1.5-0.5c-1.1,0-1.9,0.7-1.9,1.1v23.9h-53.4L883.3,119
		c-6.6-7.6-16-11.7-25.5-11.7c-4.6,0-9.3,0.9-13.7,2.9L464.9,277c-2.8,1.2-4.6,3.6-5,6.5c-0.3,2.9,0.9,5.7,3.3,7.4
		c2.3,1.7,5.4,2,8.1,0.8l379.2-166.8c7.2-3.2,15.6-1.3,20.8,4.6L978.3,252c4,4.6,9.8,7.2,15.8,7.2h51.1v26c0,0.2,0.1,0.4,0.2,0.5
		c0.9,0.8,2.3,0.8,3.2,0l38.3-33c0.1-0.1,0.2-0.3,0.2-0.5c0-0.2-0.1-0.4-0.2-0.5L1086.9,251.6z"/>
	<path class="st1" d="M567.1,544.4v-182c0-11.6-9.4-21-21-21h-52c-11.6,0-21,9.4-21,21v182c0,11.6,9.4,21,21,21h52
		C557.7,565.4,567.1,556,567.1,544.4z M551.1,549.4h-62v-192h62V549.4z"/>
	<path class="st1" d="M723.2,544.4V310.3c0-11.6-9.4-21-21-21h-52c-11.6,0-21,9.4-21,21v234.1c0,11.6,9.4,21,21,21h52
		C713.8,565.4,723.2,556,723.2,544.4z M707.2,549.4h-62V305.3h62V549.4z"/>
	<path class="st1" d="M728.2,544.4V310.3c0-14.4-11.6-26-26-26h-52c-14.4,0-26,11.6-26,26v234.1c0,14.4,11.6,26,26,26h52
		C716.5,570.4,728.2,558.7,728.2,544.4z M650.2,565.4c-11.6,0-21-9.4-21-21V310.3c0-11.6,9.4-21,21-21h52c11.6,0,21,9.4,21,21v234.1
		c0,11.6-9.4,21-21,21H650.2z"/>
	<path class="st1" d="M863.2,427.4c0,4.4,3.6,8,8,8c4.4,0,8-3.6,8-8v-195c0-11.6-9.4-21-21-21h-52c-11.6,0-21,9.4-21,21v312.1
		c0,11.6,9.4,21,21,21h26c4.4,0,8-3.6,8-8s-3.6-8-8-8h-31V227.3h62V427.4z"/>
	<path class="st1" d="M858.2,427.4c0,7.2,5.8,13,13,13c7.2,0,13-5.8,13-13v-195c0-14.4-11.6-26-26-26h-52c-14.4,0-26,11.6-26,26
		v312.1c0,14.4,11.6,26,26,26h26c7.2,0,13-5.8,13-13c0-7.2-5.8-13-13-13h-26V232.3h52V427.4z M801.2,227.3v322.1h31c4.4,0,8,3.6,8,8
		s-3.6,8-8,8h-26c-11.6,0-21-9.4-21-21V232.3c0-11.6,9.4-21,21-21h52c11.6,0,21,9.4,21,21v195c0,4.4-3.6,8-8,8c-4.4,0-8-3.6-8-8
		v-200H801.2z"/>
	<path class="st1" d="M338.1,386.6c6.2,0,11.3-5,11.3-11.3V63.3c0-10.9,4.2-21.1,11.9-28.8c7.7-7.7,17.9-11.9,28.8-11.9h78
		c6.2,0,11.3-5,11.3-11.3S474.3,0,468.1,0h-78c-34.9,0-63.3,28.4-63.3,63.3v312.1C326.8,381.5,331.9,386.6,338.1,386.6z"/>
	<path class="st1" d="M533.1,22.5h91c6.2,0,11.3-5,11.3-11.3S630.4,0,624.2,0h-91c-6.2,0-11.3,5-11.3,11.3S526.9,22.5,533.1,22.5z"
		/>
	<path class="st1" d="M1118.3,0H689.2c-6.2,0-11.3,5-11.3,11.3s5,11.3,11.3,11.3h429.1c22.5,0,40.8,14.5,40.8,32.4v294.5
		c0,6.2,5,11.3,11.3,11.3s11.3-5,11.3-11.3V54.9C1181.5,24.6,1153.2,0,1118.3,0z"/>
	<path class="st1" d="M884.2,650.2H385.6c-20,0-36.2-18.3-36.2-40.8v-52c0-6.2-5-11.3-11.3-11.3s-11.3,5-11.3,11.3v52
		c0,34.9,26.4,63.3,58.7,63.3h498.6c6.2,0,11.3-5,11.3-11.3S890.4,650.2,884.2,650.2z"/>
	<path class="st1" d="M338.1,503.6c6.2,0,11.3-5,11.3-11.3v-52c0-6.2-5-11.3-11.3-11.3s-11.3,5-11.3,11.3v52
		C326.8,498.6,331.9,503.6,338.1,503.6z"/>
	<path class="st0" d="M1352.3,112.7c-13.8,0-27.1,5.5-36.8,15.3c-9.8,9.8-15.2,23.1-15.2,36.9c0,28.8,23.3,52.2,52,52.2
		c13.8,0,27.1-5.5,36.8-15.3c9.8-9.8,15.2-23.1,15.2-36.9C1404.3,136.1,1381.1,112.7,1352.3,112.7z M1352.3,191
		c-14.4,0-26-11.7-26-26.1c0-14.4,11.6-26.1,26-26.1c6.9,0,13.5,2.8,18.4,7.7c4.9,4.9,7.6,11.5,7.6,18.4
		C1378.3,179.4,1366.7,191,1352.3,191z"/>
	<path class="st0" d="M208.1,99.7c-13.9,0-26.8,7.4-33.8,19.5c-7,12.1-7,26.9,0,39c7,12.1,19.9,19.5,33.8,19.5c21.5,0,39-17.5,39-39
		C247.1,117.2,229.6,99.7,208.1,99.7z M208.1,158.2c-10.8,0-19.5-8.7-19.5-19.5c0-10.8,8.7-19.5,19.5-19.5
		c10.8,0,19.5,8.7,19.5,19.5C227.6,149.5,218.8,158.2,208.1,158.2z"/>
	<path class="st1" d="M1130.1,441c-94,0-170.2,76.2-170.2,170.2s76.2,170.2,170.2,170.2s170.2-76.2,170.2-170.2
		S1224.1,441,1130.1,441z M1111.2,527.4c0-5.3,2.1-10.4,5.9-14.1c3.8-3.8,8.8-5.9,14.1-5.9s10.4,2.1,14.1,5.9
		c3.8,3.8,5.9,8.8,5.9,14.1v104.5c0,7.1-3.8,13.8-10,17.3c-3.1,1.8-6.5,2.7-10,2.7c-3.5,0-6.9-0.9-10-2.7c-6.2-3.6-10-10.2-10-17.3
		V527.4z M1131.3,716.7c-13.5,0-24.5-11-24.5-24.6s11-24.6,24.5-24.6s24.5,11,24.5,24.6S1144.8,716.7,1131.3,716.7z"/>
</g>
</svg>
