<?xml version="1.0" encoding="utf-8"?>
<!-- Generator: Adobe Illustrator 22.1.0, SVG Export Plug-In . SVG Version: 6.00 Build 0)  -->
<svg version="1.2" baseProfile="tiny" id="图层_1"
	 xmlns="http://www.w3.org/2000/svg" xmlns:xlink="http://www.w3.org/1999/xlink" x="0px" y="0px" viewBox="0 0 1360.6 1360.6"
	 xml:space="preserve">
<g>
	<circle fill="#FFDA6D" cx="680.3" cy="680.3" r="680.3"/>
	<g>
		<g>
			<path fill="#0D1632" d="M272,446.3c-3.8-25,0.7-48.7,17.7-67.4c0.2-0.2,0.2-0.5,0.5-0.8c19.9-25,47.2-32.3,76.7-28
				c69.1,10.1,126.4,42.2,166.6,99.9c24.2,35,30,73.9,11.6,114.3c-2.8,5.8-0.7,9.1,3.3,12.9c30.6,28.8,60.8,57.5,91.1,86.3
				c9.4,8.8,9.6,8.6,0.5,17.4c-12.4,11.8-25.5,23.4-37.4,35.8l-1.3,1.3c-0.2,0-0.2,0.2-0.5,0.2c-0.2,0.2-0.5,0.5-0.8,0.5
				c-0.2,0.2-0.2,0.2-0.5,0.2c-0.2,0.2-0.5,0.2-0.5,0.5c-0.2,0-0.2,0.2-0.5,0.2c-0.2,0-0.2,0.2-0.5,0.2c-0.2,0-0.2,0.2-0.5,0.2
				c-0.2,0-0.2,0.2-0.5,0.2c-0.2,0-0.2,0.2-0.5,0.2h-0.5c-0.2,0-0.2,0-0.5,0.2h-1.3c-0.7,0-1.5-0.2-2.2-0.5c-0.2,0-0.5-0.2-0.8-0.2
				h-0.2c-0.2,0-0.5-0.2-0.7-0.5h-0.5c-0.2-0.2-0.5-0.2-0.8-0.5l-0.2-0.2c-0.2-0.2-0.5-0.5-0.8-0.5c-0.5-0.2-0.7-0.7-1.3-1l-1.3-1.3
				c-0.5-0.5-1-1-1.5-1.8c-28-29.3-56-58.3-83.8-87.6c-3.8-4-7-5.8-12.9-3.3c-40.2,18.6-79,13.4-114.3-10.9
				C314.6,572.5,282.3,515.2,272,446.3L272,446.3z M960.6,990.9c-5.5,13.6-14.6,26-26,35.4c-9.4,7.8-22.7,17.4-35.6,13.4h-0.2
				c-7.8-2.6-14.2-8.3-20.2-14.2c-24.7-25-48.2-51.5-72.4-77.2c-26.5-27.8-52.7-55.8-79.2-83.5c-9.4-9.8-18.4-19.4-27.8-29.3
				c-9.1-9.6-9.1-9.4,0-18.6c13.4-13.8,27-27.5,39.6-41.9c6.6-7.6,11.1-6.6,17.7-0.2c28,27,56.2,53.5,84.3,80.2
				c37.8,35.8,75.4,71.9,113.6,107.5C963.7,970.7,964.9,980.1,960.6,990.9L960.6,990.9z M960.6,990.9"/>
			<path fill="#0D1632" d="M1087.8,463.3c-9.1,21-23.4,38.3-38.9,55c-25.5,27.5-50.2,55.8-79.8,79c-33.8,26.5-71.9,36.6-113.8,20.5
				c-5.5-2-8.6,0.2-11.8,3.8c-53.8,56.8-107.8,113.6-161.8,170.3c-44.2,46.4-88.1,92.9-132.2,139.3c-31.8,33.6-63.6,66.9-95.1,100.4
				c-4,4.3-8.6,7-13.8,9.1h-1.8c-27.8-5.8-46.4-23-58.1-48.2c-6.6-14.4-5.3-20.2,6.1-31c126.4-120.2,253.1-240,379.5-360.1
				c9.4-8.8,18.6-17.9,28-27c3.3-3.3,5.3-6.3,3-11.4c-21.4-46.2-10.6-88.6,20.5-125c30.8-35.8,65.1-68.9,101.9-98.9
				c7.8-6.6,16.4-12.6,26-16.4c10.6-4.3,19.2-3.3,29,1.8c13.6,7,13.6,7.6,3.3,18.4l-79.5,82.6c-8.3,8.6-16.6,17.2-24.5,26.2
				c-6.3,7.4-5.8,13.8,0.8,19.9c6.8,6.1,12.6,5.3,22.7-3.3l108.2-92.4c18.4-15.7,12.9-14.2,30,1.5c5.8,5.3,6.3,9.1,0.8,15.4
				c-33.3,38.6-66.4,77.8-99.4,116.6c-7.8,9.4-8.3,16.2-1.8,22.7c6.6,6.3,13.6,5.5,22.5-3c32.8-31.3,65.6-62.8,98.4-94.4
				c19.7-19,19.7-19.2,31.3,6.1C1091.1,449.8,1090.1,456.4,1087.8,463.3L1087.8,463.3z M1087.8,463.3"/>
		</g>
	</g>
</g>
</svg>
