<?xml version="1.0" encoding="utf-8"?>
<!-- Generator: Adobe Illustrator 22.1.0, SVG Export Plug-In . SVG Version: 6.00 Build 0)  -->
<svg version="1.2" baseProfile="tiny" id="图层_1"
	 xmlns="http://www.w3.org/2000/svg" xmlns:xlink="http://www.w3.org/1999/xlink" x="0px" y="0px" viewBox="0 0 1133.9 1133.9"
	 xml:space="preserve">
<g>
	<circle fill="#2BDFA0" cx="566.9" cy="566.9" r="566.9"/>
	<g>
		<g>

				<line fill="#0D1632" stroke="#0D1632" stroke-width="0" stroke-linecap="round" stroke-linejoin="round" x1="630.6" y1="756.9" x2="625.1" y2="753.7"/>
			<path fill="#0D1632" d="M345.2,346h440.1c10,1.3,19.9-3.3,25.3-11.8c5.4-8.5,5.4-19.4,0-27.9c-5.4-8.5-15.3-13.1-25.3-11.8H345.2
				c-6.8-0.7-13.6,1.7-18.6,6.4c-5,4.7-7.7,11.4-7.4,18.2c-0.1,7,2.5,13.8,7.4,18.8C331.5,342.9,338.2,345.8,345.2,346z"/>
			<path fill="#0D1632" d="M310.6,370.1l-53.1,136.2v3.6c1,18.8,9.1,36.7,22.6,49.9c14.3,14,33.7,21.7,53.7,21.5c42.1,0.8,77-32.5,78.3-74.6
				c0.2,20,8.4,39.2,22.8,53.2c14.3,14,33.7,21.7,53.7,21.5c42.3,1,77.5-32.3,78.7-74.6c3.1,40.1,36.5,71,76.7,71
				c40.2,0,73.6-30.9,76.7-71c0.4,20.2,8.8,39.5,23.4,53.5c14.6,14,34.2,21.6,54.4,21.1c42.3,0.5,77.1-33.3,77.8-75.6l-54.6-136.5
				L310.6,370.1z"/>
			<path fill="#0D1632" d="M661.1,766h-12.3C652.8,766.6,657,766.6,661.1,766z"/>
			<path fill="#0D1632" d="M702.9,753.7c15,4.9,28,14.7,36.9,27.8c11.9,17.2,20.2,36.5,24.6,56.9h16.4c22.5,0,40.9-18.2,41-40.8l1.3-180.9
				c-7.8,1.4-15.7,2.1-23.7,2.3c-33.9,0.1-64.6-20.2-77.8-51.4c-13.3,30.9-43.7,51-77.4,51s-64.1-20.1-77.4-51
				C553.5,598.8,522.9,619,489,619c-33.8,0.2-64.2-20.1-76.9-51.4c-13.3,31.2-43.9,51.4-77.8,51.4c-8,0.1-16-1.1-23.7-3.6v189.3
				c2.1,17.6,15.7,31.6,33.2,34.1l213.9-1.4c2.7-18.9,10.2-36.7,21.8-51.9c10.4-16.2,26.7-27.6,45.5-31.9
				c-23.9-16.9-34.2-47.4-25.3-75.4c8.9-28,34.9-46.9,64.2-46.9c29.3,0,55.3,19,64.2,46.9C737.1,706.3,726.9,736.8,702.9,753.7z"/>
		</g>
	</g>
</g>
</svg>
