<?xml version="1.0" encoding="utf-8"?>
<!-- Generator: Adobe Illustrator 22.1.0, SVG Export Plug-In . SVG Version: 6.00 Build 0)  -->
<svg version="1.2" baseProfile="tiny" id="图层_1"
	 xmlns="http://www.w3.org/2000/svg" xmlns:xlink="http://www.w3.org/1999/xlink" x="0px" y="0px" viewBox="0 0 907.1 907.1"
	 xml:space="preserve">
<g>
	<circle fill="#FFC990" cx="453.5" cy="453.5" r="453.5"/>
</g>
<g>
	<path fill="none" d="M493.2,671.2c4.6,7,12.5,11.2,20.9,11.1h67.5c8.4,0.1,16.3-4.1,20.9-11.1l35.8-57c4.3-6.8,4.3-15.4,0-22.2
		l-35.8-57c-4.3-6.9-12.3-11.1-20.9-11.1h-67.5c-8.4-0.1-16.3,4.1-20.9,11.1l-35.8,57c-4.3,6.8-4.3,15.4,0,22.2L493.2,671.2z"/>
	<path fill="#0D1632" d="M634.7,186.2c-5.7-9.1-15.7-14.5-26.4-14.3H487.5c-11,0-21.1,5.5-26.4,14.3l-61.9,104.5
		c-4.9,8.1-4.9,18.2,0,26.2l61.9,104.6c5.3,8.9,15.4,14.3,26.4,14.3h120.8v0c10.7,0.2,20.7-5.3,26.3-14.3l62-104.5
		c4.9-8.1,4.9-18.2,0-26.3L634.7,186.2z"/>
	<path fill="#0D1632" d="M399.2,616.2l61.9,104.6c5.3,8.8,15.4,14.3,26.4,14.3h120.8c11,0,21.1-5.5,26.3-14.3l62-104.5
		c4.9-8.1,4.9-18.2,0-26.3l-62-104.5c-5.7-9.1-15.7-14.5-26.3-14.3H487.5v0c-11,0-21.1,5.5-26.4,14.3l-61.9,104.5
		C394.3,598,394.3,608.1,399.2,616.2z M457.4,592l35.8-57c4.6-7,12.5-11.2,20.9-11.1h67.5c8.6,0,16.6,4.2,20.9,11.1l35.8,57
		c4.3,6.8,4.3,15.4,0,22.2l-35.8,57c-4.6,7-12.5,11.2-20.9,11.1h-67.5c-8.4,0.1-16.3-4.1-20.9-11.1l-35.8-57
		C453.1,607.4,453.1,598.7,457.4,592z"/>
	<path fill="#0D1632" d="M349.9,312.7H228.9c-11,0-21.1,5.5-26.3,14.3l-61.9,104.6c-2.4,4-3.6,8.6-3.6,13.1v0.1
		c0,4.5,1.2,9.1,3.6,13.1l61.9,104.5c5.2,8.8,15.4,14.3,26.3,14.3h120.9c11,0,21.1-5.5,26.3-14.3l62-104.5c4.9-8.1,4.9-18.2,0-26.2
		l-62-104.6h0C370.6,317.9,360.6,312.5,349.9,312.7z"/>
</g>
</svg>
