<?xml version="1.0" encoding="utf-8"?>
<!-- Generator: Adobe Illustrator 22.1.0, SVG Export Plug-In . SVG Version: 6.00 Build 0)  -->
<svg version="1.2" baseProfile="tiny" id="图层_1"
	 xmlns="http://www.w3.org/2000/svg" xmlns:xlink="http://www.w3.org/1999/xlink" x="0px" y="0px" viewBox="0 0 1426 1426"
	 xml:space="preserve">
<g>
	<circle fill="#0FECF2" cx="713" cy="713" r="713"/>
	<g>
		<path fill="#0D1632" d="M506.6,546.6v-46.9c0-118.5,94.9-214.7,212.2-214.7C836.1,285,931,381.2,931,499.7v46.9h83.9
			c5.2,0,10.3,2.1,14,5.8c3.7,3.7,5.8,8.7,5.8,14v454c0,20.9-8.3,41-23.1,55.8c-14.8,14.8-34.9,23.1-55.8,23.1H482
			c-20.9,0-41-8.3-55.8-23.1c-14.8-14.8-23.1-34.9-23.1-55.8v-454c0-10.9,8.8-19.7,19.7-19.7H506.6z M556,546.6h325.7v-46.9
			c0-91.4-73-165.3-162.9-165.3C629,334.3,556,408.3,556,499.7V546.6z M531.3,753.8c27.3,0,49.3-22.1,49.3-49.4
			c0-27.3-22.1-49.3-49.3-49.3c-27.3,0-49.3,22.1-49.3,49.3C482,731.7,504.1,753.8,531.3,753.8L531.3,753.8z M906.4,753.8
			c27.3,0,49.4-22.1,49.4-49.4c0-27.3-22.1-49.3-49.4-49.3c-27.3,0-49.3,22.1-49.3,49.3C857,731.7,879.1,753.8,906.4,753.8
			L906.4,753.8z M906.4,753.8"/>
	</g>
</g>
</svg>
